<!DOCTYPE svg PUBLIC "-//W3C//DTD SVG 20010904//EN" "http://www.w3.org/TR/2001/REC-SVG-20010904/DTD/svg10.dtd">
<svg version="1.0" xmlns="http://www.w3.org/2000/svg" width="139px" height="121px" viewBox="0 0 1390 1210" preserveAspectRatio="xMidYMid meet">
<g id="layer1" fill="#006699" stroke="none">
 <path d="M449 919 c-126 -122 -229 -228 -229 -235 0 -11 28 -14 139 -14 124 0 140 -2 145 -17 3 -10 10 -38 16 -63 27 -108 31 -120 44 -120 9 0 35 77 76 223 35 122 68 228 73 235 14 18 45 15 55 -5 5 -10 31 -89 57 -175 26 -87 53 -158 59 -158 6 0 20 17 31 38 l20 37 118 3 c90 2 117 6 117 16 0 19 -455 456 -475 456 -9 0 -119 -100 -246 -221z"/>
 </g>
<g id="layer2" fill="#3094c2" stroke="none">
 <path d="M940 900 c0 -5 5 -10 10 -10 6 0 10 5 10 10 0 6 -4 10 -10 10 -5 0 -10 -4 -10 -10z"/>
 <path d="M420 890 c0 -5 5 -10 10 -10 6 0 10 5 10 10 0 6 -4 10 -10 10 -5 0 -10 -4 -10 -10z"/>
 <path d="M727 723 c-3 -5 -26 -82 -51 -173 -92 -322 -83 -300 -115 -300 -28 0 -28 0 -72 173 l-44 172 -149 3 c-170 3 -169 3 -207 -81 -20 -42 -24 -69 -23 -142 0 -109 23 -171 87 -233 67 -66 125 -87 237 -87 84 0 101 3 147 27 29 16 76 47 105 71 l54 44 44 -38 c25 -22 72 -54 105 -71 56 -31 67 -33 155 -33 112 0 170 21 237 87 64 62 87 124 87 233 1 73 -3 100 -23 142 -37 83 -39 84 -187 81 l-129 -3 -41 -78 c-70 -136 -86 -129 -144 68 -39 131 -57 165 -73 138z"/>
 <path d="M904 636 c-3 -9 -12 -16 -20 -16 -8 0 -14 -4 -14 -10 0 -5 7 -10 15 -10 15 0 40 38 31 47 -3 3 -8 -2 -12 -11z"/>
 </g>

</svg>